<svg height="43" viewBox="0 0 360 360" width="43" xmlns="http://www.w3.org/2000/svg" xmlns:xlink="http://www.w3.org/1999/xlink"><defs><path id="a" d="m0 0h360v360h-360z"/><filter id="b" height="116.7%" width="189.3%" x="-44.7%" y="-8.3%"><feGaussianBlur in="SourceGraphic" stdDeviation="10"/></filter><filter id="c" height="116.7%" width="189.3%" x="-44.7%" y="-8.3%"><feGaussianBlur in="SourceGraphic" stdDeviation="10"/></filter><filter id="d" height="189.4%" width="116.7%" x="-8.3%" y="-44.7%"><feGaussianBlur in="SourceGraphic" stdDeviation="10"/></filter><filter id="e" height="189.4%" width="116.7%" x="-8.3%" y="-44.7%"><feGaussianBlur in="SourceGraphic" stdDeviation="10"/></filter><linearGradient id="f"><stop offset="0" stop-color="#fff"/><stop offset=".5" stop-color="#818181" stop-opacity=".5"/><stop offset="1" stop-opacity="0"/></linearGradient><radialGradient id="g" cx="50.012308%" cy="50.015385%" r="50.021539%" xlink:href="#f"/><radialGradient id="h" cx="50.006154%" cy="50.024615%" r="50.021539%" xlink:href="#f"/><radialGradient id="i" cx="49.99385%" cy="49.966175%" r="50%" xlink:href="#f"/><radialGradient id="j" cx="50.003075%" cy="49.984625%" r="50%" xlink:href="#f"/><radialGradient id="k" cx="49.99385%" cy="49.96925%" r="50%" xlink:href="#f"/><radialGradient id="l" cx="49.996925%" cy="49.990775%" r="49.9754%" xlink:href="#f"/><radialGradient id="m" cx="49.9877%" cy="49.9754%" r="50.015375%" xlink:href="#f"/><radialGradient id="n" cx="50.0123%" cy="50.015375%" r="50%" xlink:href="#f"/><path id="o" d="m167.512188 34.5168539c-1.954969-2.3848314-4.036337-4.6685393-6.210397-6.8511236-2.165634-2.1741573-4.440813-4.238764-6.817111-6.1853932-16.313879-13.41573036-37.211823-21.4803371-59.98047-21.4803371-22.7939267 0-43.7002972 8.06460674-60.0310292 21.5140449-2.3594452 1.9466293-4.626198 4.011236-6.7918317 6.1769663-2.1066476 2.1151686-4.1290293 4.3230337-6.0334387 6.6320225-13.52467737 16.3483146-21.6479104 37.3146067-21.6479104 60.1938202 0 22.6938201 8.01368736 43.5337081 21.3614064 59.8314611 1.9802487 2.418539 4.0868962 4.744382 6.2946629 6.952247 2.1740603 2.182584 4.4576663 4.264045 6.8423913 6.219101 16.3223054 13.432584 37.2202493 21.480337 60.0057494 21.480337 22.793927 0 43.708724-8.064607 60.022603-21.505618 2.367871-1.946629 4.626198-4.011236 6.791831-6.160112 2.19934-2.199439 4.289135-4.5 6.260957-6.910113 13.381425-16.297753 21.420392-37.171348 21.420392-59.8988761.008427-22.8033708-8.05582-43.6853933-21.487805-60.008427z"/><filter id="p" height="163.6%" width="144.9%" x="-22.5%" y="-31.8%"><feGaussianBlur in="SourceGraphic" stdDeviation="10"/></filter><filter id="q" height="145%" width="163.5%" x="-31.7%" y="-22.5%"><feGaussianBlur in="SourceGraphic" stdDeviation="10"/></filter><filter id="r" height="145%" width="163.5%" x="-31.8%" y="-22.5%"><feGaussianBlur in="SourceGraphic" stdDeviation="10"/></filter><filter id="s" height="163.6%" width="144.9%" x="-22.5%" y="-31.8%"><feGaussianBlur in="SourceGraphic" stdDeviation="10"/></filter><mask id="t" fill="#fff"><use fill="#fff" fill-rule="evenodd" xlink:href="#a"/></mask><mask id="u" fill="#fff"><use fill="#fff" fill-rule="evenodd" xlink:href="#o"/></mask></defs><g fill="none" fill-rule="evenodd"><path d="m328.099139 0h-296.9460199-31.1531191v31.2287335 296.4587275 32.312539h30.489393 297.391304 32.119303v-32.976265-296.2654909-30.7582441zm-52.375552 307.691661c-26.666666 20.021004-59.802562 31.89246-95.719386 31.89246-36.278093 0-69.724848-12.131905-96.5259401-32.530981-5.7550935-4.377232-11.1909263-9.140937-16.2906953-14.232304-5.3938248-5.385423-10.4179794-11.132115-14.9884478-17.248477-19.9621928-26.649864-31.7832388-59.743752-31.7832388-95.57656 0-36.068053 11.9806763-69.321571 32.1529091-96.0554503 4.4780508-5.9231254 9.3677798-11.5269902 14.6103759-16.7695863 5.2593993-5.2509976 10.8800673-10.1407267 16.8199958-14.6187775 26.7170762-20.1722327 59.9621932-32.1361059 96.0134422-32.1361059 35.916825 0 69.05272 11.8714556 95.727789 31.8924596 6.057551 4.5536652 11.762234 9.5274102 17.097248 14.8708254 5.124974 5.1333754 9.922285 10.6112162 14.31632 16.4083176 20.348666 26.7758874 32.446965 60.1806344 32.446965 96.4167194 0 35.723587-11.753833 68.708254-31.598404 95.307708-4.629279 6.200378-9.695442 12.056291-15.156479 17.517329-5.351817 5.343415-11.064903 10.31716-17.122454 14.862423z" fill="#2f6b35" fill-rule="nonzero"/><use fill="#219a00" xlink:href="#a"/><g fill-rule="nonzero"><path d="m52.1880233 274.997093c-19.9527617-26.621651-31.7731977-59.69093-31.7731977-95.497093 0-36.041233 11.9800581-69.270023 32.15125-95.9840233 4.4778197-5.9187209 9.3672965-11.5184186 14.6096221-16.7571162l-67.1756977-67.12081399v31.20551159 296.2382789 32.288512l67.1840988-67.129209c-5.4019476-5.381419-10.4174418-11.132233-14.9960755-17.244047z" fill="#219a00" filter="url(#b)" mask="url(#t)"/><path d="m292.814128 66.7672558c5.124709 5.1295582 9.921773 10.6033256 14.315581 16.3961163 20.347617 26.7559769 32.445291 60.1358839 32.445291 96.3450229 0 35.697024-11.753227 68.657163-31.596773 95.236838-4.629041 6.195767-9.694942 12.047325-15.155698 17.504302l67.167297 67.120814v-32.951744-296.0451864-30.73537209z" fill="#219a00" filter="url(#c)" mask="url(#t)"/><path d="m83.9948256 52.1509535c26.7156974-20.1572326 59.9590984-32.1122093 96.0084884-32.1122093 35.914971 0 69.049157 11.8626279 95.722849 31.8687442 6.057238 4.550279 11.761628 9.5203256 17.096366 14.8597674l67.175698-67.12920929h-31.907617-296.9390984-31.1515116l67.1756977 67.12920929c5.2591279-5.2554884 10.8795058-10.133186 16.8191279-14.6163023z" fill="#5fb647" filter="url(#d)" mask="url(#t)"/><path d="m275.70936 307.100907c-26.66529 20.006116-59.799476 31.868744-95.714447 31.868744-36.276221 0-69.72125-12.122884-96.5209595-32.506791-5.7547965-4.373976-11.1903488-9.134139-16.2898547-14.22172l-67.1840988 67.120813h30.4878198 297.3759592 32.117645l-67.167296-67.120813c-5.334738 5.347837-11.047529 10.317883-17.104768 14.859767z" fill="#186d00" filter="url(#e)" mask="url(#t)"/><path d="m307.469334 83.1315679c-8.996052-11.8235233-19.592524-22.3454512-31.494604-31.263478-26.735457-20.0109771-59.965254-31.8680899-95.97473-31.8680899-36.144248 0-69.475125 11.9578814-96.2611213 32.1200116-11.9020795 8.9516163-22.5153988 19.5071338-31.5030272 31.3810414-20.2242695 26.720491-32.2358515 59.948958-32.2358515 95.998947 0 35.814863 11.8515399 68.883779 31.8568044 95.520296 8.9370887 11.890702 19.5082917 22.488207 31.3682548 31.465015 26.8702288 20.38886 60.4032638 32.514689 96.7749408 32.514689 36.001053 0 69.23085-11.86551 95.966307-31.876487 12.281127-9.186743 23.172414-20.103349 32.353777-32.363536 19.895762-26.586133 31.679916-59.55428 31.679916-95.259977 0-36.20954-12.129508-69.605955-32.530666-96.3684321zm-54.397473 156.0906601c-3.908397 4.761319-8.280074 9.119564-13.047644 13.032747-16.315873 13.393835-37.214004 21.430136-59.998947 21.430136-22.77652 0-43.666228-8.019506-59.982101-21.404944-4.801263-3.938375-9.189787-8.338607-13.131877-13.125118-13.3424581-16.24055-21.3529872-36.998894-21.3529872-59.621459 0-22.798911 8.1200316-43.691614 21.6393792-59.982548 3.857857-4.652153 8.153724-8.926424 12.820215-12.76403 16.324296-13.4022326 37.214004-21.4385335 60.007371-21.4385335 22.759673 0 43.649381 8.0363009 59.956831 21.4049435 4.750723 3.887991 9.113977 8.246236 13.022374 12.982363 13.426691 16.265742 21.48776 37.074471 21.48776 59.789407 0 22.656155-8.044222 43.456486-21.420374 59.697036z" fill="#fff"/><path d="m153 292.676119c-11.834109-2.843215-22.978525-7.491915-33.096815-13.676119-2.254116 7.483478-7.300644 13.718303-13.903185 17.565503 13.440587 8.605577 28.445598 14.924771 44.501969 18.434497-.689693-2.539489-1.093415-5.213968-1.093415-7.972815 0-5.188657 1.303687-10.065151 3.591446-14.351066z" fill="#000"/><path d="m119.674245 81c10.168029-6.2845188 21.39627-10.9874477 33.325755-13.8493724-2.262345-4.251046-3.564654-9.0878661-3.564654-14.2343096 0-2.7447699.400711-5.3891213 1.085258-7.916318-16.07016 3.5062762-31.088455 9.8661088-44.520604 18.4937238 6.528242 3.8577406 11.487034 10.0836821 13.674245 17.5062762z" fill="#000"/><path d="m277 118.255935c6.479015 10.553977 11.356752 22.262693 14.288321 34.744065 4.179745-2.334951 8.967153-3.676486 14.050183-3.676486 2.652372 0 5.214416.407555 7.661496 1.078323-3.596715-16.803154-10.141423-32.485531-19.051095-46.401837-3.662409 6.724658-9.706204 11.895512-16.948905 14.255935z" fill="#000"/><path d="m207 66.9568823c11.546151 2.7280265 22.446188 7.1558872 32.364466 13.0431177 2.156512-7.3880597 7.10726-13.5820896 13.635534-17.4461028-13.182415-8.1674959-27.850055-14.1791045-43.516235-17.5538972.68807 2.5041459 1.082452 5.1243781 1.082452 7.8441128.008391 5.1077943-1.292229 9.9004975-3.566217 14.1127695z" fill="#000"/><path d="m81 240.814674c-6.4282763-10.590241-11.2288272-22.325143-14.087675-34.814674-4.1395456 2.23845-8.832683 3.510296-13.8232729 3.510296-2.8092724 0-5.5111315-.432428-8.0890521-1.178578 3.4950654 16.89012 9.9977048 32.652535 18.904751 46.668282 3.7098921-6.698391 9.7994032-11.853608 17.095249-14.185326z" fill="#000"/><path d="m68.1268293 152c2.8933798-11.892781 7.6264808-23.054861 13.8731707-33.19228-7.4090592-2.217298-13.6139373-7.239814-17.4522648-13.80772-8.6216028 13.412974-14.9853659 28.42173-18.5477352 44.480343 2.5170732-.688706 5.1512195-1.091851 7.8857143-1.091851 5.1428571 0 9.9930313 1.310221 14.241115 3.611508z" fill="#000"/><path d="m241.711528 278c-10.573639 6.409373-22.254912 11.239145-34.711528 14.117161 2.30899 4.19297 3.62963 8.981392 3.62963 14.050999 0 2.720882-.400452 5.334252-1.107634 7.83184 16.827508-3.547898 32.504782-10.048243 46.478004-18.913853-6.748044-3.713301-11.92836-9.791867-14.288472-17.086147z" fill="#000"/><path d="m306.907173 209.534842c-5.147679 0-10-1.281589-14.261603-3.534842-2.810127 11.87774-7.443038 23.043486-13.64557 33.204063 7.476793 2.211371 13.738397 7.228837 17.594937 13.795937 8.616033-13.469257 14.936709-28.496525 18.405063-44.579219-2.57384.711994-5.2827 1.114061-8.092827 1.114061z" fill="#000"/><path d="m200.034117 43.7140805c-3.568324-8.0797414-11.638355-13.7140805-21.029987-13.7140805-9.399892 0-17.461663 5.6426006-21.029987 13.7140805-1.255522 2.841954-1.974143 5.9813218-1.974143 9.2859195 0 4.6512213 1.387682 8.9719828 3.766565 12.5905172 4.105225 6.2622127 11.184055 10.4094828 19.237565 10.4094828 8.053511 0 15.12408-4.1472701 19.229305-10.4094828 2.370623-3.6185344 3.766565-7.9392959 3.766565-12.5905172 0-3.3045977-.710361-6.4439655-1.965883-9.2859195z" fill="#000"/><path d="m112.562298 86.5850242c-1.494794-7.69833-6.829802-14.0172382-13.9321364-16.891722-2.6675045-1.0903214-5.5745063-1.6933022-8.6301616-1.6933022-12.7016158 0-23 10.2919734-23 22.99587 0 3.0231639.6028725 5.9141677 1.6682226 8.5656312 2.8657092 7.1036088 9.1587074 12.4643558 16.8556553 13.9841978 1.4535009.289101 2.9482945.454301 4.4761221.454301 12.701616 0 23-10.300233 23-23.00413-.008259-1.495062-.165171-2.9818639-.437702-4.4108458z" fill="#000"/><path d="m65.5923864 159.767918c-3.6178847-2.379738-7.9378703-3.767918-12.5882564-3.767918-3.3122643 0-6.4510684.702353-9.2925121 1.966589-8.0782906 3.569606-13.7116179 11.62601-13.7116179 21.037542 0 9.312377 5.5424672 17.302677 13.4885976 20.930124 2.9075238 1.305551 6.112408 2.065745 9.5155324 2.065745 4.567786 0 8.8134315-1.346865 12.3982762-3.643973 6.3684683-4.090175 10.5975938-11.221125 10.5975938-19.351896-.00826-8.056403-4.1465254-15.137776-10.4076136-19.236213z" fill="#000"/><path d="m89.99587 246c-1.6602622 0-3.2709643.181753-4.8321063.520474-7.66529 1.627515-13.8933381 7.104885-16.6356617 14.292385-.9746813 2.552802-1.528102 5.30388-1.528102 8.17888 0 12.714439 10.3002334 23.008261 23.00413 23.008261 2.9653439 0 5.7985276-.578305 8.408691-1.60273 7.144909-2.817169 12.555216-9.087644 14.124618-16.762572.305621-1.49533.462561-3.048491.462561-4.642959-.00826-12.697917-10.308493-22.991739-23.00413-22.991739z" fill="#000"/><path d="m198.256737 293.411353c-4.11495-6.288127-11.188037-10.411353-19.244416-10.411353-8.056378 0-15.129465 4.123226-19.236152 10.386564-2.37973 3.627447-3.776169 7.957248-3.776169 12.601042 0 3.305191.710614 6.445123 1.966583 9.29585 3.569595 8.07293 11.642499 13.716544 21.037476 13.716544 9.394976 0 17.459617-5.651877 21.029213-13.708281 1.264231-2.842464 1.966582-5.998922 1.966582-9.304113.016526-4.643794-1.37165-8.965332-3.743117-12.576253z" fill="#000"/><path d="m290.372778 259.535009c-2.824924-7.12711-9.110792-12.528187-16.792602-14.08079-1.478542-.297307-3.006644-.454219-4.584306-.454219-12.703897 0-22.99587 10.290126-22.99587 22.991741 0 1.68474.18998 3.303412.528641 4.88079 1.660262 7.655656 7.136649 13.882586 14.331118 16.599641 2.535824.974507 5.269887 1.527828 8.136111 1.527828 12.703897 0 23.00413-10.306643 23.00413-23 0-2.989587-.594721-5.830521-1.627222-8.464991z" fill="#000"/><path d="m316.197522 157.924583c-2.816664-1.230742-5.922428-1.924583-9.201652-1.924583-4.675166 0-9.028192 1.420722-12.662597 3.824385-6.219788 4.105225-10.333273 11.167535-10.333273 19.179745 0 8.086551 4.171305 15.17364 10.473694 19.270605 3.609624 2.345843 7.90483 3.725265 12.522176 3.725265 3.345304 0 6.508888-.735141 9.375112-2.015443 8.028731-3.584844 13.629018-11.613575 13.629018-20.980427 0-9.416412-5.682887-17.519483-13.802478-21.079547z" fill="#000"/><path d="m267.999998 66c-3.089799 0-6.030891.6278736-8.724137 1.7266523-7.0801 2.9163075-12.392241 9.2446121-13.854525 16.9525862-.264368 1.3961925-.421336 2.841954-.421336 4.3207615 0 12.706178 10.302082 23 22.999998 23 1.677083 0 3.296335-.181753 4.866019-.528736 7.666666-1.644037 13.895832-7.121408 16.622125-14.3171692.958333-2.5362787 1.511853-5.2790948 1.511853-8.1458333.008262-12.7144397-10.293821-23.0082615-22.999997-23.0082615z" fill="#000"/><circle cx="85.5" cy="84.5" fill="url(#g)" r="13.5"/><circle cx="177.5" cy="47.5" fill="url(#h)" r="13.5"/><circle cx="264.5" cy="83.5" fill="url(#i)" r="13.5"/><circle cx="303.5" cy="173.5" fill="url(#j)" r="13.5"/><circle cx="264.5" cy="263.5" fill="url(#k)" r="13.5"/><circle cx="175.5" cy="301.5" fill="url(#l)" r="13.5"/><circle cx="88.5" cy="263.5" fill="url(#m)" r="13.5"/><circle cx="49.5" cy="174.5" fill="url(#n)" r="13.5"/><path d="m253.512188 119.516854c-1.954969-2.384832-4.036337-4.668539-6.210397-6.851124-2.165634-2.174157-4.440813-4.238764-6.817111-6.185393-16.313879-13.4157303-37.211823-21.480337-59.98047-21.480337-22.793927 0-43.700297 8.0646067-60.031029 21.514045-2.359445 1.946629-4.626198 4.011236-6.791832 6.176966-2.106647 2.115169-4.129029 4.323034-6.033439 6.632023-13.524677 16.348314-21.64791 37.314606-21.64791 60.19382 0 22.69382 8.0136874 43.533708 21.361406 59.831461 1.980249 2.418539 4.086897 4.744382 6.294663 6.952247 2.174061 2.182584 4.457667 4.264045 6.842392 6.219101 16.322305 13.432584 37.220249 21.480337 60.005749 21.480337 22.793927 0 43.708724-8.064607 60.022603-21.505618 2.367871-1.946629 4.626198-4.011236 6.791831-6.160112 2.19934-2.199439 4.289135-4.5 6.260957-6.910113 13.381425-16.297753 21.420392-37.171348 21.420392-59.898876.008427-22.803371-8.05582-43.685393-21.487805-60.008427z" fill="#1a4795"/><g transform="translate(86 85)"><use fill="#1a4795" xlink:href="#o"/><path d="m160.786413 27.7941049c-2.164946-2.1705286-4.439402-4.2316894-6.814946-6.1750697-16.308695-13.39333898-37.2-21.44448561-59.9614127-21.44448561-22.7866847 0-43.686413 8.05114663-60.0119565 21.47813721-2.3586956 1.9433803-4.6247282 4.0045411-6.7896739 6.1666568l66.7679348 66.6806564z" fill="#4a88e5" filter="url(#p)" mask="url(#u)"/><path d="m167.070652 154.332555c13.377174-16.270552 21.413587-37.109308 21.413587-59.7989034 0-22.7568983-8.061685-43.6040679-21.489402-59.8998579-1.954348-2.3808511-4.035054-4.6607474-6.208424-6.8396888l-66.8016304 66.7058951 66.8184784 66.731134c2.207065-2.195767 4.296196-4.492489 6.267391-6.898579z" fill="#045adb" filter="url(#q)" mask="url(#u)"/><path d="m27.2252717 27.8193436c-2.1059782 2.1116382-4.1277174 4.3158184-6.0315217 6.6209534-13.52038043 16.3210287-21.64103261 37.2523273-21.64103261 60.0933546 0 22.6559434 8.01114131 43.4610484 21.35461961 59.7315994 1.9796195 2.414503 4.0855978 4.736464 6.292663 6.940644l66.7932065-66.6974821z" fill="#045adb" filter="url(#r)" mask="url(#u)"/><path d="m27.2 161.197482c2.1733696 2.178942 4.45625 4.256928 6.8402174 6.208721 16.3171196 13.410165 37.2084239 21.444486 59.9866848 21.444486 22.7866848 0 43.6948368-8.051147 60.0035328-21.469724 2.367119-1.94338 4.624728-4.004541 6.789674-6.149831l-66.8269025-66.731134z" fill="#033f99" filter="url(#s)" mask="url(#u)"/></g></g></g></svg>